<?xml version="1.0" encoding="utf-8"?>
<!-- Generator: Adobe Illustrator 23.0.0, SVG Export Plug-In . SVG Version: 6.00 Build 0)  -->
<!DOCTYPE svg PUBLIC "-//W3C//DTD SVG 1.1//EN" "http://www.w3.org/Graphics/SVG/1.1/DTD/svg11.dtd" [
	<!ENTITY ns_extend "http://ns.adobe.com/Extensibility/1.0/">
	<!ENTITY ns_ai "http://ns.adobe.com/AdobeIllustrator/10.0/">
	<!ENTITY ns_graphs "http://ns.adobe.com/Graphs/1.0/">
	<!ENTITY ns_vars "http://ns.adobe.com/Variables/1.0/">
	<!ENTITY ns_imrep "http://ns.adobe.com/ImageReplacement/1.0/">
	<!ENTITY ns_sfw "http://ns.adobe.com/SaveForWeb/1.0/">
	<!ENTITY ns_custom "http://ns.adobe.com/GenericCustomNamespace/1.0/">
	<!ENTITY ns_adobe_xpath "http://ns.adobe.com/XPath/1.0/">
]>
<svg version="1.1" id="Layer_1" xmlns:x="&ns_extend;" xmlns:i="&ns_ai;" xmlns:graph="&ns_graphs;"
	 xmlns="http://www.w3.org/2000/svg" xmlns:xlink="http://www.w3.org/1999/xlink" x="0px" y="0px" viewBox="0 0 141.76 141.76"
	 style="enable-background:new 0 0 141.76 141.76;" xml:space="preserve">
<style type="text/css">
	.st0{fill:none;stroke:#FF8400;stroke-width:2;stroke-miterlimit:10;}
	.st1{fill:none;}
	.st2{fill:#EB8400;}
</style>
<metadata>
	<sfw  xmlns="&ns_sfw;">
		<slices></slices>
		<sliceSourceBounds  bottomLeftOrigin="true" height="132.1" width="132.1" x="151.91" y="-190.58"></sliceSourceBounds>
	</sfw>
</metadata>
<rect x="16.8" y="18.77" transform="matrix(0.9991 0.0428 -0.0428 0.9991 3.008 -2.7992)" class="st0" width="100" height="100"/>
<rect x="17.13" y="17.59" transform="matrix(0.9642 -0.2652 0.2652 0.9642 -16.1447 21.0422)" class="st0" width="105.45" height="105.45"/>
<path class="st0" d="M33.01,100.93c22.53-21.44,45.05-42.87,67.58-64.31"/>
<g>
	<rect x="29.76" y="32.42" class="st1" width="32.81" height="33.12"/>
	<path class="st2" d="M44.47,37.04l-1.22-2.2c0.31-0.24,0.59-0.41,0.86-0.5c1.03-0.35,2.27-0.52,3.72-0.52c1.47,0,2.6,0.42,3.4,1.26
		c0.69,0.73,1.26,1.76,1.7,3.08c0.44,1.32,0.85,3.2,1.22,5.65c0.2,1.24,0.37,2.18,0.52,2.8c0.47,1.75,0.78,2.87,0.93,3.35
		c0.15,0.49,0.43,1.26,0.83,2.33c0.13,0.31,0.31,0.74,0.53,1.29c0.22,0.55,0.43,1.07,0.63,1.55c0.44,1.04,1.11,2.42,2,4.12
		c-1.12,0.79-2.07,1.35-2.84,1.7c-0.77,0.35-1.48,0.52-2.12,0.52c-0.79,0-1.44-0.15-1.97-0.46c-0.53-0.31-1-0.79-1.43-1.46
		c-0.51-0.91-1.01-2.14-1.52-3.7c-0.05-0.15-0.12-0.33-0.19-0.56c-0.07-0.23-0.16-0.47-0.25-0.74c-1.57,0.65-2.79,0.98-3.66,0.98
		c-0.5,0-0.92-0.01-1.29-0.04c-0.31-0.03-1.73-0.07-4.28-0.12l-0.18,0.39c-0.74,1.57-1.42,2.76-2.07,3.57s-1.38,1.39-2.21,1.72
		c-0.83,0.33-1.88,0.5-3.13,0.5c-0.72,0-1.23-0.08-1.54-0.24c-0.31-0.16-0.46-0.42-0.46-0.78c0-0.44,0.73-1.65,2.2-3.64
		c0.52-0.69,0.91-1.24,1.16-1.64c-1.4-0.27-2.1-0.76-2.1-1.48c0-0.59,0.56-1.46,1.68-2.62c0.53-0.56,1.03-0.92,1.49-1.07
		c0.46-0.15,1.26-0.24,2.41-0.25c1.07-1.96,1.75-3.21,2.04-3.75c0.29-0.54,0.67-1.22,1.14-2.04c0.47-0.82,1-1.75,1.59-2.8
		C42.67,40.19,43.47,38.79,44.47,37.04z M46.2,42.32l-3.66,7.78h5.41l-1.67-7.78H46.2z"/>
</g>
<g>
	<rect x="62.56" y="70.31" class="st1" width="46" height="33.17"/>
	<path class="st2" d="M87.15,88.86l0.4-0.9c3.15-7.1,5.43-11.72,6.85-13.85c0.23-0.29,0.42-0.52,0.58-0.69s0.34-0.32,0.55-0.45
		s0.48-0.27,0.81-0.4c0.96-0.41,2.2-0.62,3.72-0.62c0.79,0,1.28,0.07,1.49,0.2c0.21,0.13,0.31,0.43,0.31,0.9
		c0,0.36-0.01,0.75-0.04,1.16c-0.11,2.4-0.16,4.11-0.16,5.13c0,2.56,0.17,4.99,0.52,7.29c0.23,1.28,0.56,2.58,1,3.9
		c0.47,1.17,0.91,2.08,1.34,2.7c0.51,0.69,0.93,1.2,1.28,1.52c0.43,0.43,0.64,0.75,0.64,0.98c0,0.41-0.35,0.97-1.06,1.68
		c-1.19,1.15-2.38,1.72-3.56,1.72c-1.67,0-3.18-0.71-4.54-2.14c-0.69-0.69-1.24-1.46-1.65-2.31c-0.41-0.85-0.71-1.9-0.91-3.14
		c-0.2-1.25-0.33-2.83-0.4-4.75c-0.09-2.08-0.15-3.26-0.16-3.52h-0.08c-0.84,1.61-1.54,2.96-2.1,4.04
		c-0.56,1.08-1.02,1.97-1.37,2.68c-0.35,0.71-0.77,1.56-1.25,2.54c-1.52,3.15-2.52,5.05-2.99,5.71c-0.03,0.03-0.08,0.09-0.16,0.18
		c-0.08,0.09-0.15,0.17-0.22,0.22c-0.23,0.21-0.48,0.38-0.77,0.49s-0.53,0.17-0.73,0.17c-0.56,0-1.18-0.35-1.85-1.05
		c-0.67-0.7-1.27-1.6-1.77-2.71c-0.52-1.17-0.95-2.37-1.27-3.59s-0.62-2.67-0.86-4.35s-0.47-3.72-0.65-6.14h-0.08
		c-0.4,0.88-0.7,1.54-0.9,1.98c-0.2,0.44-0.51,1.12-0.92,2.04c-0.41,0.92-0.66,1.45-0.72,1.6c-0.55,1.21-1.12,2.44-1.73,3.68
		c-0.6,1.24-1.09,2.2-1.45,2.86s-0.77,1.33-1.21,1.98c-0.2,0.31-0.55,0.74-1.06,1.3c-0.79,0.75-1.65,1.33-2.58,1.75
		c-0.93,0.42-1.82,0.63-2.66,0.63c-0.32,0-0.6-0.08-0.84-0.24c-0.24-0.16-0.36-0.37-0.36-0.62c0-0.23,0.18-0.53,0.54-0.9
		c0.2-0.24,0.63-0.85,1.3-1.84l1.16-1.8c0.72-1.07,1.81-2.98,3.27-5.75l0.96-1.8c2.24-4.3,3.76-7.24,4.55-8.82
		c0.79-1.58,1.18-2.5,1.18-2.75c0-0.28-0.2-0.59-0.61-0.94c-0.31-0.25-0.46-0.47-0.46-0.66c0-0.29,0.39-0.57,1.16-0.83
		c0.77-0.26,1.62-0.39,2.52-0.39c1.83,0,3.13,0.41,3.91,1.22c0.48,0.51,0.93,1.5,1.34,2.99c0.41,1.49,0.83,3.64,1.25,6.47
		c0.03,0.16,0.05,0.28,0.06,0.37c0.01,0.09,0.03,0.16,0.04,0.23c0.01,0.07,0.02,0.15,0.02,0.26c0.08,0.37,0.12,0.62,0.12,0.74
		c0.28,1.72,0.5,2.83,0.64,3.32C86.65,88.05,86.87,88.49,87.15,88.86z"/>
</g>
<g>
</g>
<g>
</g>
<g>
</g>
<g>
</g>
<g>
</g>
</svg>
